# xmcd CD database file generated by OrangeCD 5.2
#
# Track frame offsets:
#	150
#	12225
#	24014
#	36440
#	53080
#	71848
#	85720
#	95436
#	109382
#	123205
#	135301
#	146153
#
# Disc length: 2093 seconds
#
# Revision: 0
# Processed by: cddbd v1.5.1PL0 Copyright (c) Steve Scherf et al.
# Submitted via: OrangeCD 5.2
#
DISCID=9b082b0c
DTITLE=Johnny Cash - Giant Hits
DYEAR=1900
DGENRE=Country
TTITLE0=Ring Of Fire
TTITLE1=I Still Miss Someone
TTITLE2=Jackson
TTITLE3=The City Of New Orleans
TTITLE4=Sunday Morning Coming Down
TTITLE5=Ruby, Don't Take Your Guns To Town
TTITLE6=What Do I Care
TTITLE7=Orange Blossom Special
TTITLE8=It Ain't Me Babe
TTITLE9=I'm So Lonesome I could Cry
TTITLE10=In The Jailhouse Now
TTITLE11=Daddy Sang bass
EXTD=
EXTT0=
EXTT1=
EXTT2=
EXTT3=
EXTT4=
EXTT5=
EXTT6=
EXTT7=
EXTT8=
EXTT9=
EXTT10=
EXTT11=
PLAYORDER=
